<svg width="40" height="30" viewBox="0 0 40 30" fill="none" xmlns="http://www.w3.org/2000/svg">
<path fill-rule="evenodd" clip-rule="evenodd" d="M10.9732 0.148302C10.5309 0.355831 0.281092 10.6301 0.115053 11.0325C-0.0255137 11.3729 -0.0375466 11.7898 0.0804387 12.2266C0.152949 12.4948 0.903679 13.2796 5.37376 17.7603C8.44458 20.8385 10.7108 23.0499 10.8951 23.1482C11.1109 23.2633 11.3526 23.3158 11.6764 23.318C12.795 23.3258 13.5726 22.2935 13.2771 21.193C13.1849 20.8496 12.8964 20.5395 9.45964 17.0905L5.74186 13.3595H20.5297C33.7222 13.3595 35.3489 13.3727 35.6081 13.4809C35.9933 13.6418 36.3154 13.9532 36.4927 14.3362C36.6301 14.6329 36.6375 15.0005 36.6391 21.5938C36.6404 26.567 36.6662 28.6234 36.73 28.8365C37.0865 30.0261 38.6931 30.3959 39.5473 29.4849C40.022 28.9787 40.0008 29.3525 39.9995 21.5077C39.9983 13.5496 40.0174 13.8691 39.4753 12.7483C39.0729 11.9163 38.0954 10.9337 37.266 10.5276C36.1153 9.96421 37.3065 10.0021 20.7022 10.0009L5.74037 9.99968L9.38393 6.34683C11.3879 4.33772 13.0792 2.58849 13.1424 2.45956C13.4648 1.80197 13.3398 1.02366 12.8323 0.529136C12.2892 -0.000156559 11.5935 -0.142677 10.9732 0.148302Z" fill="#8E8F93"/>
</svg>
