<svg width="40" height="34" viewBox="0 0 40 34" fill="none" xmlns="http://www.w3.org/2000/svg">
<path fill-rule="evenodd" clip-rule="evenodd" d="M9.3438 0.10018C9.17976 0.158636 8.97251 0.271406 8.88318 0.350727C8.45336 0.732409 0.246815 10.1968 0.129357 10.4463C-0.0431189 10.8127 -0.0431189 11.4329 0.129357 11.8031C0.240407 12.0414 7.21743 20.1187 8.54667 21.5478C9.00338 22.0388 9.42328 22.2561 9.91554 22.2561C11.0625 22.2561 11.8618 21.0714 11.4348 20.0044C11.3603 19.8181 10.1494 18.3679 8.31762 16.2712L5.32238 12.8425L17.0946 12.8224C29.9391 12.8006 29.5128 12.7875 30.8529 13.2444C35.1999 14.7269 37.6211 19.3353 36.3619 23.7301C35.3764 27.1697 32.4096 29.5938 28.7886 29.918C28.2691 29.9645 23.0718 29.9952 15.6523 29.9956L3.3756 29.9963L3.03112 30.1782C2.51698 30.4496 2.23228 30.9019 2.1936 31.5087C2.15819 32.0646 2.30754 32.4535 2.69907 32.8251C3.20985 33.3098 2.28503 33.2787 16.1455 33.277C29.6215 33.2755 29.5709 33.2767 31.061 32.8963C32.1415 32.6204 33.3582 32.1104 34.2782 31.5479C36.6526 30.096 38.5142 27.7688 39.4035 25.1412C39.9775 23.4448 40.1553 21.2305 39.8579 19.4813C39.0684 14.8384 35.7114 11.1189 31.1941 9.88191C29.7236 9.47936 30.2095 9.49452 17.3325 9.44763L5.32942 9.40395L8.31965 5.97905C10.1712 3.85846 11.3569 2.43677 11.4333 2.24585C11.9581 0.934191 10.6813 -0.376844 9.3438 0.10018Z" fill="#8E8F93"/>
</svg>
