<svg width="90" height="90" viewBox="0 0 90 90" fill="none" xmlns="http://www.w3.org/2000/svg">
<path fill-rule="evenodd" clip-rule="evenodd" d="M33.0546 1.40409C17.9466 5.44609 4.70564 19.3381 1.11565 34.9131C-5.25335 62.5391 16.4796 89.6501 45.0946 89.7771C65.4976 89.8671 84.3596 74.7911 88.9936 54.6891C90.9076 46.3901 89.9916 39.8011 86.9256 39.8011C84.8986 39.8011 83.0546 43.3221 83.0546 47.1941C83.0546 56.6631 76.3626 69.2021 68.0556 75.3001C47.1416 90.6531 17.5076 81.5261 8.88365 57.0761C5.95565 48.7741 6.62965 36.5321 10.4556 28.5361C14.0846 20.9511 21.1266 13.8631 28.5546 10.3191C37.0436 6.26909 48.4626 5.65509 57.6436 8.75709C64.9606 11.2281 67.3526 10.9181 66.8746 7.56109C66.0036 1.44109 46.3136 -2.14291 33.0546 1.40409ZM80.5436 15.8551C77.7996 18.6651 68.4406 27.7551 59.7456 36.0541L43.9376 51.1451L34.6276 41.8741C25.2466 32.5311 22.0376 30.9341 21.2166 35.1971C20.7416 37.6651 41.6306 58.8011 44.5456 58.8011C45.8526 58.8011 54.3756 50.9911 68.5566 36.7991C87.4276 17.9131 90.3856 14.5491 89.4406 13.0491C87.5306 10.0161 85.6756 10.6011 80.5436 15.8551Z" fill="#20BF55"/>
</svg>
