<svg width="20" height="20" viewBox="0 0 20 20" fill="none" xmlns="http://www.w3.org/2000/svg">
<path fill-rule="evenodd" clip-rule="evenodd" d="M11.7221 0.120936C10.8959 0.533797 10.899 1.67685 11.7276 2.11957C11.8923 2.20759 11.8961 2.20775 14.0399 2.21881L16.1873 2.22986L11.5116 6.90731C6.35848 12.0623 6.66081 11.7299 6.66378 12.237C6.66742 12.86 7.14494 13.3331 7.77148 13.3344C8.27303 13.3354 7.94617 13.6331 13.0927 8.48842L17.7701 3.81266L17.7812 5.96007C17.7923 8.10389 17.7924 8.10772 17.8804 8.27244C18.3231 9.10102 19.4662 9.10414 19.8791 8.27791L19.9998 8.03637V4.47456C19.9998 0.414045 20.0209 0.680547 19.6702 0.329808C19.3195 -0.0209306 19.586 0.000245826 15.5254 0.000245826H11.9636L11.7221 0.120936ZM2.63277 2.28507C1.55707 2.52176 0.634098 3.30193 0.22698 4.31867C-0.0164702 4.92665 -0.00701503 4.63162 0.00482344 11.253L0.015607 17.2891L0.105665 17.5806C0.230575 17.9851 0.500437 18.4913 0.753889 18.7966C1.06138 19.167 1.40489 19.4351 1.85135 19.653C2.59202 20.0146 1.92289 19.9814 8.74735 19.9949C14.1324 20.0055 14.817 20.0001 15.0915 19.9449C15.7749 19.8073 16.3179 19.5122 16.8155 19.0078C17.1885 18.6297 17.4471 18.2115 17.6246 17.6993L17.7532 17.3282L17.7649 14.6909C17.7733 12.8073 17.7639 12.0078 17.7322 11.8934C17.661 11.6369 17.4314 11.3681 17.1688 11.2338C16.8674 11.0797 16.4834 11.068 16.206 11.2046C15.973 11.3193 15.7516 11.5398 15.6478 11.7606C15.5671 11.9324 15.5648 11.9934 15.5457 14.4565L15.5261 16.9765L15.4049 17.1914C15.3383 17.3096 15.2096 17.4633 15.1191 17.5329C14.7808 17.7931 15.1448 17.7796 8.80397 17.7682L3.06255 17.7579L2.88325 17.675C2.65441 17.5692 2.43085 17.3456 2.32501 17.1167L2.24206 16.9375L2.23178 11.196C2.22041 4.85519 2.20686 5.21921 2.46707 4.88094C2.53669 4.79037 2.6904 4.66175 2.80859 4.59505L3.02348 4.47386L5.54354 4.45432C8.00665 4.43522 8.0676 4.43291 8.23943 4.35219C8.46022 4.24842 8.68074 4.02704 8.79545 3.79402C8.932 3.51658 8.92032 3.13263 8.76619 2.83124C8.63542 2.57556 8.37165 2.34571 8.1237 2.27143C7.89791 2.20376 2.94631 2.21607 2.63277 2.28507Z" fill="#157BD3"/>
</svg>
