<svg width="71" height="78" viewBox="0 0 71 78" fill="none" xmlns="http://www.w3.org/2000/svg">
<path opacity="0.21" d="M52.8252 75.6744C54.9629 75.8299 57.163 74.7105 58.2396 72.8604C59.3319 71.0103 59.2538 68.5538 58.0368 66.7814C56.0083 63.8585 50.5315 63.4698 48.425 66.5948C46.0533 70.1241 48.6591 75.3635 52.8252 75.6744Z" stroke="black" stroke-width="4" stroke-miterlimit="10"/>
<path opacity="0.21" d="M23.1005 12.646C21.2437 12.646 19.4025 12.7392 17.5925 13.0968C16.0789 13.3922 14.659 13.9364 13.8008 15.3045C13.4419 15.8798 13.1923 16.5794 13.0831 17.248C12.6774 19.7822 13.4263 21.9899 15.1583 23.9022C16.4066 25.2703 17.8577 26.3431 19.5429 27.1049C19.9954 27.307 20.4167 27.5402 20.8692 27.7579C21.4465 28.0378 21.7274 28.5353 21.6182 29.1727C21.4465 30.0744 21.2437 30.9762 20.7288 31.7691C19.9486 32.9662 18.8407 33.7436 17.53 34.2722C16.0009 34.8785 14.5186 34.863 12.9894 34.21C11.5227 33.5726 10.1184 32.8263 8.8389 31.8624C7.20054 30.6186 5.82743 29.1261 4.8132 27.3226C3.4557 24.9438 2.87837 22.363 2.9876 19.6422C3.05001 18.1186 3.34648 16.6416 3.81458 15.1957C4.22027 13.9519 4.76639 12.8014 5.43734 11.682C7.0133 9.02345 9.15097 6.94012 11.8036 5.38539C14.2689 3.95504 16.9059 3.19323 19.7301 3.16213C23.8651 3.13104 28 3.13104 32.1349 3.16213C34.5378 3.17768 36.9408 3.30206 39.3437 3.37979C41.7155 3.45753 44.1028 3.56636 46.4745 3.59745C50.625 3.6441 54.7756 3.69074 58.9105 3.6441C60.7829 3.613 62.6709 3.37979 64.5434 3.19323C65.0895 3.14658 65.62 2.99111 66.1505 2.88228C67.1023 2.69571 67.5704 2.91337 67.9761 3.76847C69.084 6.06947 68.8967 8.32382 67.6328 10.4849C66.4002 12.5838 64.5121 13.8742 62.2965 14.7448C60.3304 15.5222 58.2708 15.7399 56.1955 15.8798C53.7457 16.0508 51.3116 15.8953 48.8775 15.5999C48.0349 15.4911 47.8632 15.6777 47.7852 16.5172C47.6292 18.0564 47.4263 19.5956 47.2547 21.1503C47.0674 22.6739 46.8958 24.2131 46.7242 25.7368C46.6774 26.1099 46.6774 26.483 46.5993 26.8562C46.5213 27.2448 46.6774 27.3537 47.0362 27.4003C48.0349 27.5402 49.0335 27.4781 50.0321 27.3848C52.1386 27.1982 54.1358 26.6074 56.1175 25.9389C56.7728 25.7212 57.4282 25.5035 58.0991 25.3636C58.3332 25.317 58.6608 25.4569 58.8637 25.6124C59.8935 26.4364 60.3304 27.5402 60.3772 28.8307C60.4396 30.5098 60.1276 32.08 59.1758 33.4948C58.4736 34.5521 57.5218 35.345 56.3983 35.9358C54.2763 37.0396 51.9825 37.4283 49.6108 37.4283C48.6902 37.4283 47.7696 37.3817 46.849 37.3506C46.2405 37.335 46.1624 37.4128 46.1156 38.0191C46.0376 38.9208 45.9752 39.8226 45.866 40.7243C45.5383 43.6628 45.2262 46.5856 44.8361 49.5241C44.5085 52.0738 44.0092 54.608 43.2602 57.08C42.8857 58.3083 42.5268 59.5365 42.0743 60.7337C41.4034 62.5527 40.4828 64.2473 39.4217 65.8642C37.9394 68.1186 36.1294 70.0931 33.9605 71.7256C31.8072 73.3269 29.4511 74.5396 26.7829 75.0527C25.0509 75.3792 23.3033 75.4414 21.587 75.0527C18.9656 74.4308 16.7031 73.1715 15.0959 70.9327C14.2065 69.6889 13.5824 68.3207 13.2079 66.8282C12.5837 64.3562 12.5837 61.8841 13.0987 59.3966C13.5512 57.22 14.3469 55.1677 15.408 53.1932C16.5626 51.0477 17.9669 49.0887 19.5429 47.2386C21.0876 45.4196 22.7728 43.7249 24.614 42.2013C26.2368 40.8798 27.9064 39.6049 29.5603 38.2989C30.2625 37.7548 30.9646 37.2106 31.6512 36.6354C32.0101 36.34 31.9945 36.2778 31.6824 35.9358C31.2299 35.4383 30.7462 34.9718 30.3405 34.4277C29.4199 33.1994 29.0298 30.9762 29.966 29.5614C30.5434 28.6752 31.3547 28.0688 32.3378 27.7113C32.5874 27.618 32.8371 27.5558 33.0867 27.4936C33.8045 27.307 34.0385 27.0583 34.1166 26.3276C34.335 24.2442 34.7875 22.2075 35.4116 20.2175C35.8954 18.6628 36.4883 17.1391 37.0344 15.6155C37.1592 15.2579 37.3309 14.9003 37.4713 14.5427C37.5649 14.294 37.5181 14.123 37.206 14.0763C36.816 14.0297 36.4415 13.9675 36.0514 13.9208C34.0385 13.6565 32.0413 13.3456 30.0284 13.1435C27.7347 12.8947 25.4254 12.7392 23.1161 12.5371C23.1161 12.5682 23.1161 12.6149 23.1005 12.646ZM32.6342 45.373C32.5874 45.3419 32.525 45.3263 32.4782 45.2952C31.9789 45.7616 31.464 46.197 30.9959 46.6945C29.3419 48.4824 27.8284 50.3792 26.4552 52.4003C25.0041 54.5303 23.709 56.7691 22.804 59.1945C22.3359 60.4382 21.9614 61.7131 22.0551 63.0502C22.1799 64.6982 22.8976 65.7088 24.6764 66.1907C25.4254 66.3929 26.1276 66.1441 26.7361 65.7243C27.7815 65.0091 28.4213 63.9519 28.9674 62.8325C29.6384 61.4488 30.1689 60.0185 30.5122 58.5259C30.9959 56.396 31.4796 54.266 31.8384 52.1049C32.1661 50.1771 32.3222 48.2336 32.5562 46.2902C32.5874 45.9948 32.603 45.6839 32.6342 45.373Z" stroke="black" stroke-width="4" stroke-miterlimit="10"/>
<path d="M21.1186 10.8269C19.2617 10.8269 17.4205 10.9202 15.6105 11.2777C14.097 11.5731 12.6771 12.1173 11.8189 13.4855C11.46 14.0607 11.2103 14.7603 11.1011 15.4289C10.6954 17.9631 11.4444 20.1708 13.1764 22.0831C14.4247 23.4513 15.8758 24.524 17.561 25.2858C18.0135 25.4879 18.4348 25.7211 18.8873 25.9388C19.4646 26.2187 19.7455 26.7162 19.6362 27.3536C19.4646 28.2554 19.2617 29.1571 18.7468 29.95C17.9667 31.1471 16.8588 31.9245 15.5481 32.4531C14.019 33.0595 12.5366 33.0439 11.0075 32.3909C9.54077 31.7535 8.13646 31.0072 6.85697 30.0433C5.2186 28.7995 3.8455 27.307 2.83127 25.5035C1.47377 23.1248 0.896437 20.5439 1.00566 17.8231C1.06808 16.2995 1.36454 14.8225 1.83265 13.3766C2.23834 12.1328 2.78446 10.9823 3.45541 9.86294C5.03136 7.20436 7.16904 5.12102 9.82163 3.5663C12.287 2.13595 14.924 1.35859 17.7482 1.34304C21.8831 1.31194 26.0181 1.31194 30.153 1.34304C32.5559 1.35859 34.9589 1.48296 37.3618 1.5607C39.7335 1.63844 42.1209 1.74727 44.4926 1.77836C48.6431 1.825 52.7936 1.87165 56.9286 1.825C58.801 1.79391 60.689 1.5607 62.5614 1.37413C63.1075 1.32749 63.6381 1.17202 64.1686 1.06319C65.1204 0.876622 65.5885 1.09428 65.9942 1.94938C67.102 4.25038 66.9148 6.50473 65.6509 8.6658C64.4182 10.7647 62.5302 12.0551 60.3145 12.9258C58.3485 13.7031 56.2888 13.9208 54.2136 14.0607C51.7638 14.2317 49.3297 14.0762 46.8955 13.7809C46.0529 13.672 45.8813 13.8586 45.8033 14.6981C45.6472 16.2373 45.4444 17.7765 45.2728 19.3312C45.0855 20.8549 44.9139 22.394 44.7422 23.9177C44.6954 24.2908 44.6954 24.6639 44.6174 25.0371C44.5394 25.4258 44.6954 25.5346 45.0543 25.5812C46.0529 25.7211 47.0516 25.659 48.0502 25.5657C50.1567 25.3791 52.1539 24.7883 54.1355 24.1198C54.7909 23.9021 55.4462 23.6845 56.1172 23.5445C56.3512 23.4979 56.6789 23.6378 56.8818 23.7933C57.9116 24.6173 58.3485 25.7211 58.3953 27.0116C58.4577 28.6907 58.1456 30.261 57.1938 31.6758C56.4917 32.733 55.5399 33.5259 54.4164 34.1167C52.2943 35.2205 50.0006 35.6092 47.6289 35.6092C46.7083 35.6092 45.7877 35.5626 44.8671 35.5315C44.2585 35.5159 44.1805 35.5937 44.1337 36.2C44.0557 37.1017 43.9933 38.0035 43.884 38.9052C43.5564 41.8437 43.2443 44.7665 42.8542 47.705C42.5265 50.2547 42.0272 52.7889 41.2783 55.2609C40.9038 56.4892 40.5449 57.7174 40.0924 58.9146C39.4215 60.7336 38.5008 62.4282 37.4398 64.0452C35.9575 66.2995 34.1475 68.274 31.9786 69.9065C29.8253 71.5078 27.4692 72.7205 24.801 73.2336C23.069 73.5601 21.3214 73.6223 19.605 73.2336C16.9836 72.6117 14.7211 71.3524 13.114 69.1136C12.2246 67.8698 11.6004 66.5016 11.2259 65.0091C10.6018 62.5371 10.6018 60.0651 11.1167 57.5775C11.5692 55.4009 12.365 53.3486 13.426 51.3741C14.5807 49.2286 15.985 47.2697 17.561 45.4195C19.1057 43.6005 20.7909 41.9058 22.6321 40.3822C24.2549 39.0607 25.9244 37.7858 27.5784 36.4799C28.2806 35.9357 28.9827 35.3915 29.6693 34.8163C30.0282 34.5209 30.0125 34.4587 29.7005 34.1167C29.248 33.6192 28.7643 33.1527 28.3586 32.6086C27.438 31.3804 27.0479 29.1571 27.9841 27.7423C28.5614 26.8561 29.3728 26.2498 30.3558 25.8922C30.6055 25.7989 30.8551 25.7367 31.1048 25.6745C31.8225 25.4879 32.0566 25.2392 32.1346 24.5085C32.3531 22.4251 32.8056 20.3884 33.4297 18.3984C33.9134 16.8437 34.5064 15.32 35.0525 13.7964C35.1773 13.4388 35.3489 13.0812 35.4894 12.7236C35.583 12.4749 35.5362 12.3039 35.2241 12.2572C34.834 12.2106 34.4595 12.1484 34.0695 12.1017C32.0566 11.8374 30.0594 11.5265 28.0465 11.3244C25.7528 11.0756 23.4435 10.9202 21.1342 10.718C21.1342 10.7491 21.1186 10.7802 21.1186 10.8269ZM30.6367 43.5539C30.5899 43.5228 30.5275 43.5072 30.4806 43.4761C29.9813 43.9425 29.4664 44.3779 28.9983 44.8754C27.3443 46.6633 25.8308 48.5601 24.4577 50.5812C23.0066 52.7112 21.7115 54.95 20.8065 57.3754C20.3384 58.6192 19.9639 59.894 20.0575 61.2311C20.1823 62.8791 20.9001 63.8897 22.6789 64.3716C23.4279 64.5738 24.13 64.325 24.7386 63.9052C25.784 63.1901 26.4237 62.1328 26.9699 61.0134C27.6408 59.6297 28.1713 58.1994 28.5146 56.7068C28.9983 54.5769 29.482 52.4469 29.8409 50.2858C30.1686 48.358 30.3246 46.4146 30.5587 44.4711C30.6055 44.1758 30.6211 43.8648 30.6367 43.5539Z" fill="white"/>
<path d="M51.5769 74.6173C53.7146 74.7728 55.9147 73.6534 56.9913 71.8032C58.0836 69.9531 58.0056 67.4967 56.7885 65.7243C54.76 62.8014 49.2832 62.4127 47.1767 65.5377C44.805 69.0514 47.4108 74.3064 51.5769 74.6173Z" fill="white"/>
</svg>
