<svg width="30" height="27" viewBox="0 0 30 27" fill="none" xmlns="http://www.w3.org/2000/svg">
<path fill-rule="evenodd" clip-rule="evenodd" d="M2.3087 0.0724628C1.53281 0.263506 0.667661 0.95902 0.331811 1.66167C-0.0169321 2.39134 -0.0954592 3.22387 0.118498 3.92337C0.182082 4.13131 1.12974 6.02836 2.22443 8.139C3.8973 11.3645 4.23637 11.98 4.35029 11.9982C4.42489 12.0102 7.28123 12.348 10.6977 12.7488C14.1143 13.1496 16.87 13.4931 16.8217 13.512C16.7733 13.531 16.3514 13.5892 15.8841 13.6414C15.4167 13.6936 12.648 14.0164 9.73134 14.3587C6.8147 14.701 4.38469 14.9811 4.33125 14.9811C4.21598 14.9811 0.347106 22.389 0.136372 23.0131C-0.101495 23.7179 -0.0188073 24.6709 0.339956 25.3588C0.426571 25.5248 0.696786 25.8632 0.940513 26.1108C1.30906 26.4853 1.46207 26.5942 1.85061 26.759C2.43048 27.0048 3.16236 27.0687 3.72407 26.9224C4.00846 26.8483 27.8243 16.4529 28.4496 16.1299C29.0579 15.8156 29.6112 15.1775 29.8438 14.522C29.9971 14.09 30.0475 13.2963 29.9502 12.8468C29.7951 12.1303 29.2288 11.3172 28.6428 10.9701C28.5069 10.8896 24.1104 8.94505 18.8728 6.64891C13.6352 4.35276 8.18957 1.96368 6.77139 1.33986C5.35321 0.716036 4.02147 0.158197 3.81197 0.100248C3.36976 -0.0221366 2.74002 -0.0337384 2.3087 0.0724628Z" fill="white"/>
</svg>
