<svg width="160" height="161" viewBox="0 0 160 161" fill="none" xmlns="http://www.w3.org/2000/svg">
<path fill-rule="evenodd" clip-rule="evenodd" d="M18.6301 0.0993127C16.9246 0.387062 13.6658 1.56374 11.5851 2.64334C10.0412 3.4446 8.55734 4.61657 6.56532 6.60859C3.52188 9.65203 2.07624 11.9825 0.731429 16.012L0 18.2037V80.0433V141.883L0.731429 144.075C2.07624 148.104 3.52188 150.435 6.56532 153.478C9.60877 156.521 11.9393 157.967 15.9687 159.312L18.1605 160.043H80H141.84L144.031 159.312C148.061 157.967 150.391 156.521 153.435 153.478C156.478 150.435 157.924 148.104 159.269 144.075L160 141.883V80.0433V18.2037L159.269 16.012C157.924 11.9825 156.478 9.65203 153.435 6.60859C150.465 3.63935 148.244 2.23849 144.188 0.776573L142.153 0.0432657L80.7828 0.00537924C47.0294 -0.0155992 19.0607 0.0266708 18.6301 0.0993127ZM139.279 10.2084C144.814 11.1149 148.929 15.2361 149.838 20.7828C150.237 23.221 150.234 136.883 149.835 139.322C148.928 144.858 144.807 148.973 139.26 149.881C136.838 150.278 23.1618 150.278 20.7396 149.881C15.1928 148.973 11.0716 144.858 10.1652 139.322C9.76564 136.883 9.76282 23.221 10.162 20.7828C11.0469 15.3807 15.205 11.1108 20.4399 10.2288C22.6035 9.86432 137.057 9.8446 139.279 10.2084ZM41.3301 45.6016L37.8959 49.0468L42.5096 53.6683L47.1236 58.2898L42.5832 62.8221C40.0861 65.3148 38.0431 67.4994 38.0431 67.6766C38.0431 67.8542 39.5933 69.5446 41.4879 71.4333L44.9331 74.8675L49.6288 70.1796L54.3249 65.4914L58.9476 70.1067L63.5704 74.7216L67.1637 71.1183L70.7566 67.5151L66.1429 62.901L61.5289 58.287L66.1414 53.6668L70.7538 49.0468L67.3196 45.6016C65.4309 43.707 63.7439 42.1568 63.571 42.1568C63.3979 42.1568 61.2468 44.1629 58.7908 46.6145L54.3249 51.0723L49.8589 46.6145C47.4029 44.1629 45.2518 42.1568 45.0787 42.1568C44.9058 42.1568 43.2188 43.707 41.3301 45.6016ZM92.6804 45.6016L89.2462 49.0468L93.8586 53.6668L98.4711 58.287L93.8571 62.901L89.2434 67.5151L92.8363 71.1183L96.4296 74.7216L101.052 70.1067L105.675 65.4914L110.371 70.1796L115.067 74.8675L118.512 71.4333C120.407 69.5446 121.957 67.8542 121.957 67.6766C121.957 67.4994 119.914 65.3148 117.417 62.8221L112.876 58.2898L117.49 53.6683L122.104 49.0468L118.67 45.6016C116.781 43.707 115.094 42.1568 114.921 42.1568C114.748 42.1568 112.597 44.1629 110.141 46.6145L105.675 51.0723L101.209 46.6145C98.7532 44.1629 96.6021 42.1568 96.429 42.1568C96.2561 42.1568 94.5691 43.707 92.6804 45.6016ZM78.7476 97.472C70.1686 98.3127 65.7365 99.1979 59.1781 101.38C53.0802 103.408 44.8059 107.412 39.9678 110.676C39.6405 110.897 40.2427 111.894 42.607 115.048L45.6701 119.135L46.9448 118.274C51.4649 115.219 57.9297 112.197 64.0313 110.286C70.1047 108.384 73.4262 107.864 80.6262 107.686C86.1811 107.549 87.5591 107.616 90.8656 108.179C98.3627 109.458 106.409 112.71 112.908 117.086L115.914 119.11L118.959 115.047C120.634 112.813 121.959 110.939 121.902 110.883C121.846 110.827 120.18 109.705 118.2 108.39C112.246 104.435 104.85 101.084 98.4849 99.459C91.7263 97.7335 84.0081 96.9563 78.7476 97.472Z" fill="#7D7B7B"/>
</svg>
